<?xml version="1.0" encoding="utf-8"?>
<!-- Generator: Adobe Illustrator 16.0.0, SVG Export Plug-In . SVG Version: 6.00 Build 0)  -->
<!DOCTYPE svg PUBLIC "-//W3C//DTD SVG 1.1//EN" "http://www.w3.org/Graphics/SVG/1.1/DTD/svg11.dtd">
<svg version="1.1" id="Layer_1" xmlns="http://www.w3.org/2000/svg" xmlns:xlink="http://www.w3.org/1999/xlink" x="0px" y="0px"
	 width="512px" height="512px" viewBox="0 0 512 512" enable-background="new 0 0 512 512" xml:space="preserve">
<path d="M350.912,71.615c-10.38-2.221-20.216-4.034-29.507-5.439c-9.292-1.405-19.399-2.13-30.323-2.176
	c-31.818,0.136-54.799,7.479-68.94,22.028c-14.142,14.55-21.077,35.49-20.805,62.821v39.706h-40.249v64.181h40.249V448h78.323
	V252.736h57.11l5.439-64.181h-62.55v-31.003c-0.453-8.793,0.861-15.682,3.943-20.668c3.082-4.985,10.651-7.524,22.708-7.615
	c4.815,0.023,10.413,0.386,16.793,1.088c6.38,0.703,12.386,1.609,18.018,2.72L350.912,71.615z"/>
</svg>
