<?xml version="1.0" encoding="utf-8"?>
<!-- Generator: Adobe Illustrator 16.0.0, SVG Export Plug-In . SVG Version: 6.00 Build 0)  -->
<!DOCTYPE svg PUBLIC "-//W3C//DTD SVG 1.1//EN" "http://www.w3.org/Graphics/SVG/1.1/DTD/svg11.dtd">
<svg version="1.1" id="Layer_1" xmlns="http://www.w3.org/2000/svg" xmlns:xlink="http://www.w3.org/1999/xlink" x="0px" y="0px"
	 width="512px" height="512px" viewBox="0 0 512 512" enable-background="new 0 0 512 512" xml:space="preserve">
<path fill="#FFFFFF" d="M492.255,109.456c-17.384,7.711-36.069,12.921-55.676,15.265c20.011-11.997,35.384-30.995,42.623-53.632
	c-18.732,11.111-39.479,19.177-61.562,23.524C399.96,75.771,374.766,64,346.883,64c-53.535,0-96.942,43.402-96.942,96.938
	c0,7.598,0.857,14.998,2.51,22.092c-80.567-4.042-152-42.637-199.811-101.288c-8.346,14.317-13.126,30.971-13.126,48.737
	c0,33.633,17.114,63.305,43.127,80.688c-15.891-0.503-30.84-4.864-43.909-12.125c-0.009,0.404-0.009,0.808-0.009,1.219
	c0,46.968,33.416,86.147,77.762,95.056c-8.133,2.215-16.698,3.4-25.539,3.4c-6.247,0-12.32-0.609-18.24-1.74
	c12.336,38.512,48.137,66.542,90.558,67.32C130.088,390.303,88.289,405.8,42.87,405.8c-7.825,0-15.542-0.46-23.125-1.355
	C62.646,431.948,113.602,448,168.347,448c178.31,0,275.819-147.716,275.819-275.821c0-4.203-0.098-8.382-0.284-12.54
	C462.825,145.969,479.259,128.897,492.255,109.456"/>
</svg>
