<?xml version="1.0" encoding="utf-8"?>
<!-- Generator: Adobe Illustrator 16.0.0, SVG Export Plug-In . SVG Version: 6.00 Build 0)  -->
<!DOCTYPE svg PUBLIC "-//W3C//DTD SVG 1.1//EN" "http://www.w3.org/Graphics/SVG/1.1/DTD/svg11.dtd">
<svg version="1.1" id="Layer_1" xmlns="http://www.w3.org/2000/svg" xmlns:xlink="http://www.w3.org/1999/xlink" x="0px" y="0px"
	 width="100px" height="100px" viewBox="0 0 100 100" enable-background="new 0 0 100 100" xml:space="preserve">
<path fill="#FFFFFF" d="M45.816,65.352c0,1.06-0.061,1.812-0.18,2.267c-0.217,0.786-0.652,1.18-1.303,1.18
	c-0.604,0-1.006-0.36-1.205-1.086c-0.113-0.42-0.17-1.116-0.17-2.094V53.721h-3.131v14.303c0.001,2.928,1.044,4.391,3.126,4.391
	c1.293,0,2.273-0.766,2.943-2.295v1.811h3.182V53.721h-3.262V65.352z M50.552,35.974c0.865,0,1.394-0.701,1.587-2.102
	c0.041-0.307,0.061-1.451,0.061-3.432v-1.787c0-1.855-0.025-2.973-0.072-3.352c-0.203-1.391-0.717-2.086-1.549-2.086
	c-0.807,0-1.311,0.611-1.514,1.834c-0.062,0.391-0.096,1.418-0.096,3.084v1.691c0,2.268,0.012,3.5,0.037,3.699
	C49.173,35.158,49.689,35.974,50.552,35.974z M57.872,53.236c-1.293,0-2.211,0.675-2.752,2.025v-7.578h-3.244V71.93h3.082v-1.902
	c0.524,1.591,1.474,2.387,2.845,2.387c1.646,0,2.736-1.145,3.271-3.43c0.28-1.217,0.422-3.242,0.422-6.072
	c0-2.916-0.127-4.967-0.388-6.152C60.598,54.41,59.52,53.236,57.872,53.236z M58.157,66.451c-0.171,1.658-0.648,2.488-1.438,2.488
	c-0.848,0-1.375-0.679-1.586-2.029c-0.074-0.443-0.109-1.549-0.109-3.322c0-2.299,0.02-3.637,0.061-4.014
	c0.203-1.867,0.748-2.803,1.635-2.803c0.797,0,1.279,0.836,1.451,2.504c0.031,0.293,0.049,1.496,0.049,3.604
	C58.219,64.914,58.198,66.105,58.157,66.451z M26.748,51.686h4.004V71.93h3.471V51.686h4.002v-4.001H26.748V51.686z M68.491,53.234
	c-1.791,0-3.091,0.636-3.898,1.904c-0.491,0.775-0.811,1.908-0.957,3.396c-0.071,0.734-0.106,1.967-0.106,3.697
	c0,2.149,0.035,3.613,0.106,4.391c0.163,1.773,0.538,3.121,1.13,4.045c0.74,1.164,1.955,1.746,3.644,1.746
	c1.631,0,2.834-0.482,3.606-1.439c0.775-0.961,1.162-2.488,1.162-4.586c0-0.084-0.004-0.203-0.012-0.354
	c-0.008-0.152-0.012-0.27-0.012-0.354h-3.051c0,2.379-0.545,3.567-1.636,3.567c-0.733,0-1.219-0.595-1.452-1.781
	c-0.113-0.575-0.17-1.543-0.17-2.897c0-0.576,0.014-0.965,0.036-1.164h6.367v-1.383c0-3.377-0.322-5.617-0.967-6.729
	C71.482,53.921,70.221,53.234,68.491,53.234z M69.995,60.518h-3.142c0-0.166-0.004-0.341-0.016-0.519l-0.016-0.252
	c-0.049-1.11,0.072-1.964,0.363-2.56c0.24-0.479,0.65-0.723,1.224-0.723c0.687,0,1.143,0.352,1.366,1.053
	c0.146,0.439,0.22,1.183,0.22,2.229V60.518z M57.934,20.424h3.149v11.963c0,0.982,0.058,1.684,0.17,2.105
	c0.201,0.73,0.604,1.094,1.211,1.094c0.654,0,1.093-0.396,1.312-1.188c0.121-0.455,0.182-1.213,0.182-2.279V20.424h3.279v18.311
	h-3.197v-1.818c-0.676,1.536-1.662,2.306-2.961,2.306c-2.096,0-3.145-1.473-3.145-4.416V20.424z M46.344,22.88
	c0.713-1.963,2.123-2.943,4.234-2.943c2.109,0,3.525,0.98,4.246,2.943c0.48,1.306,0.719,3.542,0.719,6.708
	c0,3.162-0.238,5.398-0.719,6.707c-0.721,1.951-2.137,2.928-4.246,2.928c-2.111,0-3.521-0.982-4.234-2.943
	c-0.48-1.309-0.721-3.539-0.721-6.691C45.623,26.435,45.863,24.198,46.344,22.88z M35.019,14.352l2.836,9.172l2.801-9.172h3.764
	l-4.83,14.045v10.338h-3.523V28.396l-4.921-14.044H35.019z M78.882,69.949c0,5.355-4.342,9.697-9.694,9.697H30.812
	c-5.354,0-9.695-4.342-9.695-9.697V51.217c0-5.355,4.342-9.695,9.695-9.695h38.375c5.354,0,9.694,4.34,9.694,9.695V69.949z"/>
</svg>
