<?xml version="1.0" encoding="utf-8"?>
<!-- Generator: Adobe Illustrator 16.0.0, SVG Export Plug-In . SVG Version: 6.00 Build 0)  -->
<!DOCTYPE svg PUBLIC "-//W3C//DTD SVG 1.1//EN" "http://www.w3.org/Graphics/SVG/1.1/DTD/svg11.dtd">
<svg version="1.1" id="Layer_1" xmlns="http://www.w3.org/2000/svg" xmlns:xlink="http://www.w3.org/1999/xlink" x="0px" y="0px"
	 width="760px" height="815px" viewBox="115.5 -2.5 760 815" enable-background="new 115.5 -2.5 760 815" xml:space="preserve">
<g id="Logo">
	<g>
		
			<image overflow="visible" opacity="0.75" width="509" height="599" xlink:href="60B9C01230DEE4C6.png"  transform="matrix(1 0 0 1 122.5 40.5)">
		</image>
		<g>
			<polygon fill="#E14D43" points="571.242,100.5 571.242,202.104 403.348,202.104 403.348,579.403 306.389,579.403 
				307.008,241.445 183.411,241.445 183.411,100.5 			"/>
		</g>
	</g>
	<g>
		<g>
			<g>
				
					<image overflow="visible" opacity="0.75" width="494" height="606" xlink:href="60B9C01230DEE4CA.png"  transform="matrix(1 0 0 1 342.5 141.5)">
				</image>
				<g>
					<polygon fill="#FFFFFF" points="776,202.415 403.348,202.104 402.727,687.205 776.31,687.205 776,547.188 544.602,547.188 
						543.981,342.429 776,342.429 					"/>
				</g>
			</g>
		</g>
	</g>
	<text transform="matrix(1 0 0 1 783.9082 685.2051)" fill="#E14D43" font-family="'MyriadPro-Regular'" font-size="52.7045">©</text>
</g>
<text transform="matrix(1 0 0 1 62.499 912.0635)" display="none" fill="#FE0000" font-family="'MyriadPro-Regular'" font-size="94.0227">Canon Tschikof Design</text>
</svg>
